<mxfile host="app.diagrams.net" modified="2022-11-15T10:52:50.606Z" agent="5.0 (Windows NT 10.0; Win64; x64) AppleWebKit/537.36 (KHTML, like Gecko) Chrome/106.0.0.0 Safari/537.36" etag="ZI2S1uJ15IGGR6e3QO_9" version="20.5.3" type="github">
  <diagram id="PdtkbvHBkK5tWsDxgZCf" name="第 1 页">
    <mxGraphModel dx="664" dy="475" grid="1" gridSize="10" guides="1" tooltips="1" connect="1" arrows="1" fold="1" page="1" pageScale="1" pageWidth="827" pageHeight="1169" math="0" shadow="0">
      <root>
        <mxCell id="0" />
        <mxCell id="1" parent="0" />
        <mxCell id="QH6_DG5szJfKGqiFsPjg-7" style="edgeStyle=orthogonalEdgeStyle;rounded=0;orthogonalLoop=1;jettySize=auto;html=1;entryX=0;entryY=0.25;entryDx=0;entryDy=0;fontSize=24;curved=1;" edge="1" parent="1" source="QH6_DG5szJfKGqiFsPjg-1" target="QH6_DG5szJfKGqiFsPjg-3">
          <mxGeometry relative="1" as="geometry" />
        </mxCell>
        <mxCell id="QH6_DG5szJfKGqiFsPjg-1" value="&lt;span style=&quot;font-size: 24px;&quot;&gt;a [0x11]&lt;/span&gt;" style="text;html=1;align=center;verticalAlign=middle;resizable=0;points=[];autosize=1;strokeColor=none;fillColor=none;" vertex="1" parent="1">
          <mxGeometry x="45" y="400" width="110" height="40" as="geometry" />
        </mxCell>
        <mxCell id="QH6_DG5szJfKGqiFsPjg-8" style="edgeStyle=orthogonalEdgeStyle;curved=1;rounded=0;orthogonalLoop=1;jettySize=auto;html=1;entryX=0;entryY=0.5;entryDx=0;entryDy=0;fontSize=24;" edge="1" parent="1" source="QH6_DG5szJfKGqiFsPjg-2" target="QH6_DG5szJfKGqiFsPjg-3">
          <mxGeometry relative="1" as="geometry" />
        </mxCell>
        <mxCell id="QH6_DG5szJfKGqiFsPjg-2" value="b [0x11]" style="text;html=1;align=center;verticalAlign=middle;resizable=0;points=[];autosize=1;strokeColor=none;fillColor=none;fontSize=24;" vertex="1" parent="1">
          <mxGeometry x="45" y="530" width="110" height="40" as="geometry" />
        </mxCell>
        <mxCell id="QH6_DG5szJfKGqiFsPjg-3" value="abc [0x11]" style="rounded=0;whiteSpace=wrap;html=1;fontSize=24;" vertex="1" parent="1">
          <mxGeometry x="250" y="520" width="120" height="60" as="geometry" />
        </mxCell>
        <mxCell id="QH6_DG5szJfKGqiFsPjg-5" value="常量池" style="text;html=1;align=center;verticalAlign=middle;resizable=0;points=[];autosize=1;strokeColor=none;fillColor=none;fontSize=24;" vertex="1" parent="1">
          <mxGeometry x="260" y="470" width="100" height="40" as="geometry" />
        </mxCell>
      </root>
    </mxGraphModel>
  </diagram>
</mxfile>
